<?xml version="1.0" encoding="utf-8"?>
<!-- Generator: Adobe Illustrator 24.2.1, SVG Export Plug-In . SVG Version: 6.00 Build 0)  -->
<svg version="1.1" id="_x30_" xmlns="http://www.w3.org/2000/svg" xmlns:xlink="http://www.w3.org/1999/xlink" x="0px" y="0px"
	 viewBox="0 0 164 18" style="enable-background:new 0 0 164 18;" xml:space="preserve">
<style type="text/css">
	.st0{fill:#4A4A4A;}
</style>
<g id="_x32_">
	<path id="_x31_9" class="st0" d="M6.4,8.8l2.7-6.9H6.4L5,6.6L3,1.9H0.3l3.2,6.7l-3.2,7.3h2.7L4.9,11l2,4.9h2.7L6.4,8.8z"/>
	<path id="_x31_8" class="st0" d="M19.9,15.9l-3.6-14h-3.6l-3,14h2.4l0.9-3.6h3.6l0.4,3.6H19.9z M16,10h-2.5c0,0,0.9-5.7,1-6.2
		L16,10z"/>
	<path id="_x31_7" class="st0" d="M23.8,10.1h3.4V8h-3.4V4.1h3.7L27,1.9h-6.2l0.3,14h2.6V10.1z"/>
	<path id="_x31_6" class="st0" d="M29.2,1.9L30,6.9h1.8l-0.1-4.9H29.2z"/>
	<path id="_x31_5" class="st0" d="M39.3,11.2c-0.1-0.4-0.3-0.7-0.6-0.9c-0.3-0.3-0.7-0.7-1.4-1c-0.5-0.4-0.9-0.7-1.1-0.8
		C36.1,8.3,36,8,36,7.7s0.1-0.5,0.2-0.7c0.2-0.2,0.4-0.3,0.7-0.3c0.5,0,1.1,0.2,1.7,0.6l0.8-1.9c-0.7-0.5-1.5-0.7-2.3-0.7
		c-1.1,0-1.9,0.3-2.4,0.8c-0.6,0.5-0.9,1.2-0.9,2.1c0,0.7,0.2,1.3,0.5,1.9c0.3,0.6,0.9,1,1.6,1.5c0.6,0.4,0.9,0.7,1.2,0.9
		c0.2,0.3,0.3,0.6,0.3,0.8s-0.1,0.6-0.3,0.7c-0.2,0.2-0.5,0.3-0.9,0.3c-0.3,0-0.7-0.1-1.2-0.3c-0.5-0.2-0.9-0.4-1.2-0.7v2.2
		c0.7,0.5,1.5,0.7,2.4,0.7c1.1,0,2-0.3,2.5-0.9c0.6-0.6,0.9-1.4,0.9-2.4C39.5,12.1,39.4,11.6,39.3,11.2z"/>
	<path id="_x31_4" class="st0" d="M46.3,15.9h4.1c1.2,0,2.1-0.4,2.7-1.1c0.7-0.7,1-1.7,1-3c0-0.9-0.2-1.6-0.5-2.1
		c-0.4-0.6-0.9-0.9-1.7-1.1V8.5c0.6-0.1,1.1-0.5,1.4-1c0.4-0.6,0.5-1.2,0.5-2c0-1.2-0.3-2.1-1-2.7c-0.6-0.5-1.7-0.7-3-0.7h-3.5V15.9
		z M48.7,4.2h1.1c0.5,0,0.9,0.1,1.2,0.4s0.4,0.7,0.4,1.2s-0.1,1-0.3,1.3c-0.2,0.4-0.6,0.5-1.2,0.5h-1.2C48.7,7.5,48.7,4.2,48.7,4.2z
		 M50,9.8c1.1,0,1.6,0.7,1.6,1.9c0,0.7-0.1,1.2-0.4,1.5c-0.3,0.4-0.7,0.5-1.2,0.5h-1.3V9.8H50z"/>
	<path id="_x31_3" class="st0" d="M59,1h-2.5v14.7H59V1z"/>
	<path id="_x31_2" class="st0" d="M67.6,15.7V8.5c0-1.2-0.3-2.1-0.9-2.8c-0.6-0.6-1.5-0.9-2.5-0.9c-1.3,0-2.3,0.4-3.4,1l0.9,1.8
		c0.8-0.5,1.6-0.7,2.2-0.7c0.9,0,1.3,0.5,1.3,1.5V9l-1.4,0.1c-1.2,0.1-2.2,0.4-2.7,0.9c-0.6,0.6-0.9,1.4-0.9,2.5
		c0,1,0.2,1.9,0.7,2.5c0.5,0.6,1.1,0.9,1.9,0.9c0.6,0,1.1-0.1,1.5-0.4c0.4-0.3,0.8-0.7,1.2-1.3h0.1l0.5,1.5L67.6,15.7L67.6,15.7z
		 M62.6,12.6c0-0.6,0.1-1,0.4-1.4c0.3-0.3,0.7-0.5,1.3-0.5H65v0.9c0,0.7-0.1,1.3-0.4,1.7C64.3,13.8,64,14,63.6,14
		C63,13.9,62.6,13.5,62.6,12.6L62.6,12.6z"/>
	<path id="_x31_1" class="st0" d="M75,13.7h-3.2l3.1-6.9V4.9h-5.8v2h3L68.9,14v1.7H75C75,15.7,75,13.7,75,13.7z"/>
	<path id="_x31_0" class="st0" d="M83.1,6.2c-0.7-1-1.8-1.5-2.9-1.5c-1.3,0-2.3,0.5-3,1.5c-0.7,1-1.1,2.3-1.1,4.1
		c0,1.1,0.2,2.1,0.5,3c0.3,0.8,0.8,1.5,1.5,2c0.6,0.5,1.4,0.7,2.2,0.7c1.3,0,2.3-0.5,3-1.5c0.7-1,1.1-2.3,1.1-4.1
		C84.2,8.6,83.8,7.2,83.1,6.2z M79,7.8C79.2,7.2,79.6,7,80.2,7c0.5,0,0.9,0.3,1.2,0.8c0.2,0.6,0.4,1.4,0.4,2.5
		c0,2.2-0.5,3.4-1.5,3.4c-0.5,0-0.9-0.3-1.2-0.8c-0.4-0.7-0.5-1.5-0.5-2.6S78.7,8.4,79,7.8z"/>
	<path id="_x39_" class="st0" d="M89.3,5.2c-0.3,0.3-0.6,0.7-0.9,1.4h-0.1L88,4.9H86v10.8h2.5v-5.5c0-0.9,0.2-1.7,0.5-2.1
		c0.3-0.6,0.8-0.7,1.4-0.7c0.3,0,0.5,0,0.7,0.1l0.3-2.5c-0.3-0.1-0.6-0.2-0.9-0.2C90,4.7,89.6,4.9,89.3,5.2z"/>
	<path id="_x38_" class="st0" d="M104.2,1.9l0.1,9.1c0,0.8-0.1,1.5-0.4,2s-0.7,0.7-1.3,0.7c-1.2,0-1.8-0.8-1.8-2.6l-0.1-9.1h-2.5
		l0.1,8.9c0,1.7,0.4,3,1.1,3.8c0.7,0.8,1.8,1.3,3.1,1.3c1.4,0,2.4-0.5,3.1-1.3c0.7-0.8,1.1-2.1,1.1-3.7V1.9H104.2z"/>
	<path id="_x37_" class="st0" d="M111.9,15.7V1.9h-2.4v13.8H111.9z"/>
	<path id="_x36_" class="st0" d="M127.2,3.7c-0.9-1.2-2.2-1.8-3.7-1.8h-3.7v14h3.4c1.8,0,3.1-0.7,4-1.9c1-1.2,1.4-3,1.4-5.3
		C128.6,6.6,128.1,4.9,127.2,3.7z M125.2,12.5c-0.5,0.8-1.2,1.2-2.1,1.2h-0.9V4.2h1.1c1.7,0,2.5,1.6,2.5,4.7
		C125.9,10.4,125.7,11.6,125.2,12.5z"/>
	<path id="_x35_" class="st0" d="M137.8,15.2V13c-0.9,0.6-1.7,0.7-2.5,0.7c-0.7,0-1.2-0.3-1.6-0.7c-0.4-0.5-0.6-1.2-0.6-2.1h5.1V9.6
		c0-1.6-0.3-2.7-1-3.6c-0.7-0.8-1.6-1.2-2.7-1.2c-1.3,0-2.2,0.5-2.9,1.5c-0.7,1-1.1,2.4-1.1,4.2s0.4,3.1,1.2,4.1
		c0.8,0.9,1.8,1.4,3.1,1.4C135.9,15.9,136.9,15.6,137.8,15.2L137.8,15.2z M135.3,7.3c0.2,0.4,0.3,1,0.4,1.8h-2.5
		c0-0.8,0.2-1.4,0.4-1.9c0.2-0.4,0.5-0.6,0.9-0.6C134.8,6.7,135.1,6.9,135.3,7.3z"/>
	<path id="_x34_" class="st0" d="M152.9,15.7V8.6c0-1.3-0.2-2.2-0.7-3c-0.5-0.7-1.3-0.9-2.2-0.9c-1.2,0-2.1,0.7-2.6,1.9h-0.1
		c-0.4-1.2-1.3-1.9-2.5-1.9c-0.5,0-1,0.1-1.4,0.4c-0.5,0.3-0.8,0.7-1.1,1.2h-0.2l-0.3-1.4h-2.1v10.8h2.5v-5.2c0-1.3,0.1-2.2,0.4-2.8
		s0.7-0.8,1.2-0.8c0.8,0,1.2,0.7,1.2,2.3v6.4h2.5v-5.2c0-1.2,0.1-2.1,0.4-2.7c0.2-0.6,0.7-0.8,1.2-0.8c0.8,0,1.2,0.7,1.2,2.3v6.4
		L152.9,15.7L152.9,15.7z"/>
	<path id="_x33_" class="st0" d="M161.8,6.2c-0.8-1-1.8-1.5-2.9-1.5c-1.3,0-2.3,0.5-3,1.5s-1.1,2.3-1.1,4.1c0,1.1,0.2,2.1,0.5,3
		s0.8,1.5,1.5,2c0.6,0.5,1.4,0.7,2.2,0.7c1.3,0,2.3-0.5,3-1.5s1.1-2.3,1.1-4.1C162.8,8.5,162.4,7.2,161.8,6.2z M157.5,7.8
		c0.2-0.6,0.6-0.8,1.2-0.8c0.5,0,0.9,0.3,1.2,0.8c0.2,0.6,0.4,1.4,0.4,2.5c0,2.2-0.5,3.4-1.6,3.4c-0.5,0-0.9-0.3-1.2-0.8
		c-0.2-0.6-0.4-1.4-0.4-2.5C157.2,9.2,157.4,8.4,157.5,7.8z"/>
</g>
<path class="st0" d="M14.9,5"/>
</svg>
